<svg xmlns="http://www.w3.org/2000/svg" viewBox="0 0 64 64" role="img" aria-label="Bank of Africa">
  <circle cx="32" cy="32" r="28" fill="none" stroke="#1B2A4A" stroke-width="5.5" />
  <path
    fill="#00ADC5"
    d="M32 14c-9.5 0-17 7.2-17 16.2 0 6.2 3.4 11.6 8.2 15.8 2.4 2.1 5.4 4.2 8.8 6.5 3.4-2.3 6.4-4.4 8.8-6.5 4.8-4.2 8.2-9.6 8.2-15.8C49 21.2 41.5 14 32 14zm-1.2 8.5c3.8-.2 7.1 1.4 9.2 4.1-2.8 1.1-5.9 1.7-8 1.7-2.4 0-5-.7-7.8-2 1.8-2.3 4.5-3.6 6.6-3.8zm-10.4 9.8c2.6.9 5.4 1.4 8.2 1.4 3.4 0 7-.9 10.4-2.7-1.2 3.6-4.2 7.2-8.6 10.6-4.3-3.3-7.3-6.8-8.5-10.5 2.9 1.1 5.7 1.7 8.5 1.2z"
  />
</svg>
