<svg xmlns="http://www.w3.org/2000/svg" viewBox="0 0 320 64" role="img" aria-label="Bank of Africa">
  <text
    x="0"
    y="30"
    font-family="Arial, Helvetica, sans-serif"
    font-size="22"
    font-weight="700"
    fill="#1B2A4A"
  >BANK OF AFRICA</text>
  <text
    x="168"
    y="48"
    font-family="Arial, Helvetica, sans-serif"
    font-size="11"
    font-weight="700"
    fill="#00ADC5"
  >BMCE GROUP</text>
  <circle cx="286" cy="32" r="24" fill="none" stroke="#1B2A4A" stroke-width="4.5" />
  <path
    fill="#00ADC5"
    d="M286 16c-7.5 0-13.5 5.8-13.5 13 0 5 3 9.4 7.2 12.8 2 1.7 4.4 3.4 7.3 5.2 2.9-1.8 5.3-3.5 7.3-5.2 4.2-3.4 7.2-7.8 7.2-12.8 0-7.2-6-13-13.5-13zm-.8 6.8c3-.2 5.6 1.1 7.3 3.2-2.2.9-4.6 1.4-6.5 1.4-1.9 0-4-.6-6.2-1.6 1.4-1.8 3.6-2.8 5.4-3zm-8.2 7.8c2 .7 4.2 1.1 6.4 1.1 2.7 0 5.5-.7 8.2-2.1-1 2.8-3.3 5.7-6.8 8.4-3.4-2.6-5.7-5.4-6.7-8.2 2.3.9 4.5 1.4 6.9 1.2z"
  />
</svg>
