<svg xmlns="http://www.w3.org/2000/svg" viewBox="0 0 64 64" role="img" aria-label="Ecobank">
  <rect width="64" height="64" rx="10" fill="#FFFFFF" />
  <path
    fill="#00577A"
    d="M12 38.5c0-8.5 6.2-15.5 14.8-15.5 3.2 0 5.8.9 7.8 2.4V14.5H44v24c0 7.8-5.8 13.5-14.2 13.5-8.8 0-17.8-4.8-17.8-13.5zm14.8-10.5c-4.8 0-7.8 3.8-7.8 10.5s3.2 10.5 8.8 10.5c3.5 0 6.2-1.2 7.8-3.2V28c-1.8 1.2-4.2 2-5.8 2-3.8 0-2.8-2.2-2.8-2.2z"
  />
  <path fill="#BDCF00" d="M10 46h44v3H10z" />
  <path
    fill="#00577A"
    d="M48 22.5c5.5 0 8.5 4.2 8.5 10.2 0 6.5-4 11.3-9.8 11.3-2.2 0-4-.6-5.2-1.5v-6.8c1.2.8 2.8 1.3 4.5 1.3 3 0 4.8-2.2 4.8-5.5 0-3-1.8-5-4.5-5-1.5 0-3 .5-4 1.2V22h4.7z"
  />
</svg>
