<svg xmlns="http://www.w3.org/2000/svg" viewBox="9.75 9.73 180.52 180.52" role="img" aria-label="MTN MoMo">
  <rect width="180.52" height="180.52" fill="#FFCB05" />
  <path
    fill="#00678F"
    d="M174.87 89.74c0 19.27-37.88 34.89-84.6 34.89-46.73 0-84.61-15.62-84.61-34.89s37.88-34.88 84.61-34.88c46.73 0 84.6 15.61 84.6 34.88"
  />
  <polygon
    fill="#FFFFFF"
    points="36.06,106.96 44.81,72.07 58.79,72.07 58.79,92.39 67.98,72.07 82.41,72.07 73.67,106.96 64.48,106.96 69.72,84.44 58.79,106.96 51.37,106.96 51.37,84.44 45.67,106.96"
  />
  <polygon fill="#ED1D24" points="85.24,107.4 86.55,102.54 96.61,102.54 95.29,107.4" />
  <polygon
    fill="#FFFFFF"
    points="107.75,106.96 116.49,72.07 126.55,72.07 130.93,90.63 135.73,72.07 144.91,72.07 136.17,106.96 126.55,106.96 121.74,87.97 116.93,106.96"
  />
  <polygon
    fill="#FFCB05"
    points="85.24,72.07 83.05,80.91 92.24,80.91 87.29,100.08 97.34,100.08 102.3,80.91 111.48,80.91 113.66,72.07"
  />
</svg>
